<?xml version="1.0" encoding="UTF-8" standalone="no"?>
<!-- Created with Inkscape (http://www.inkscape.org/) -->

<svg
   version="1.2"
   width="340"
   height="200.00002"
   id="svg2"
   inkscape:version="1.4.3 (0d15f75042, 2025-12-25)"
   sodipodi:docname="bigcomm-text-dark-rounded.svg"
   xml:space="preserve"
   xmlns:inkscape="http://www.inkscape.org/namespaces/inkscape"
   xmlns:sodipodi="http://sodipodi.sourceforge.net/DTD/sodipodi-0.dtd"
   xmlns:xlink="http://www.w3.org/1999/xlink"
   xmlns="http://www.w3.org/2000/svg"
   xmlns:svg="http://www.w3.org/2000/svg"
   xmlns:rdf="http://www.w3.org/1999/02/22-rdf-syntax-ns#"
   xmlns:cc="http://creativecommons.org/ns#"
   xmlns:dc="http://purl.org/dc/elements/1.1/"><sodipodi:namedview
     pagecolor="#585858"
     bordercolor="#424242"
     borderopacity="1"
     objecttolerance="10"
     gridtolerance="10"
     guidetolerance="10"
     inkscape:pageopacity="0"
     inkscape:pageshadow="2"
     inkscape:window-width="1920"
     inkscape:window-height="1005"
     id="namedview15"
     showgrid="false"
     inkscape:showpageshadow="false"
     fit-margin-top="0"
     fit-margin-left="0"
     fit-margin-right="0"
     fit-margin-bottom="0"
     inkscape:zoom="1.7699772"
     inkscape:cx="182.20574"
     inkscape:cy="208.75975"
     inkscape:window-x="0"
     inkscape:window-y="0"
     inkscape:window-maximized="1"
     inkscape:current-layer="svg2"
     inkscape:pagecheckerboard="0"
     showguides="true"
     inkscape:guide-bbox="true"
     inkscape:deskcolor="#585858"><inkscape:grid
       type="xygrid"
       id="grid837"
       originx="141.00642"
       originy="184.06879"
       spacingy="1"
       spacingx="1"
       units="px"
       visible="false" /></sodipodi:namedview><defs
     id="defs4"><radialGradient
       id="a-6"
       cx="0"
       cy="0"
       r="1"
       fx="0"
       fy="0"
       gradientTransform="matrix(-0.52268372,146.80127,-146.80127,-0.52268372,144.6632,-31.000484)"
       gradientUnits="userSpaceOnUse"
       spreadMethod="pad"><stop
         offset="0"
         style="stop-opacity:1;stop-color:#002a43"
         id="stop7-1" /><stop
         offset="1"
         style="stop-opacity:1;stop-color:#2c2d3d"
         id="stop8-8" /></radialGradient><linearGradient
       id="b"
       x1="70.739998"
       x2="304.39001"
       y1="207.69"
       y2="456.44"
       gradientTransform="matrix(0.01252805,4.4605909e-5,4.4605909e-5,-0.01252805,8.8805775,20.19845)"
       gradientUnits="userSpaceOnUse"
       spreadMethod="pad"><stop
         offset="0"
         style="stop-opacity:1;stop-color:#2d85c6"
         id="stop1" /><stop
         offset="1"
         style="stop-opacity:1;stop-color:#04bacc"
         id="stop2" /></linearGradient><linearGradient
       id="c"
       x1="146.39"
       x2="380.04001"
       y1="136.63"
       y2="385.38"
       gradientTransform="matrix(0.01252805,4.4605909e-5,-4.4605909e-5,0.01252805,8.6937546,13.562216)"
       gradientUnits="userSpaceOnUse"
       spreadMethod="pad"><stop
         offset="0"
         style="stop-opacity:1;stop-color:#2d85c6"
         id="stop3" /><stop
         offset="1"
         style="stop-opacity:1;stop-color:#04bacc"
         id="stop4" /></linearGradient><linearGradient
       id="d"
       x1="127.32"
       x2="360.97"
       y1="154.53999"
       y2="403.29001"
       gradientTransform="matrix(0.01252805,4.4605909e-5,-4.4605909e-5,0.01252805,8.6937546,13.562216)"
       gradientUnits="userSpaceOnUse"
       spreadMethod="pad"><stop
         offset="0"
         style="stop-opacity:1;stop-color:#2d85c6"
         id="stop5" /><stop
         offset="1"
         style="stop-opacity:1;stop-color:#04bacc"
         id="stop6" /></linearGradient><radialGradient
       id="a-6-7"
       cx="0"
       cy="0"
       r="1"
       fx="0"
       fy="0"
       gradientTransform="matrix(-0.52268372,146.80127,-146.80127,-0.52268372,144.6632,-31.000484)"
       gradientUnits="userSpaceOnUse"
       spreadMethod="pad"><stop
         offset="0"
         style="stop-opacity:1;stop-color:#002a43"
         id="stop7-1-5" /><stop
         offset="1"
         style="stop-opacity:1;stop-color:#2c2d3d"
         id="stop8-8-9" /></radialGradient><radialGradient
       id="paint0_radial_313_57"
       cx="0"
       cy="0"
       r="1"
       gradientUnits="userSpaceOnUse"
       gradientTransform="matrix(0,11,-11,0,301,318)"><stop
         stop-color="#1D4775"
         id="stop8" /><stop
         offset="1"
         stop-color="#002A43"
         id="stop9" /></radialGradient><linearGradient
       id="paint1_linear_313_57"
       x1="4"
       y1="16"
       x2="20"
       y2="16"
       gradientUnits="userSpaceOnUse"
       gradientTransform="translate(289,317)"><stop
         stop-color="#2D85C5"
         id="stop10" /><stop
         offset="1"
         stop-color="#0BB1CB"
         id="stop11" /></linearGradient><radialGradient
       id="a-6-1"
       cx="0"
       cy="0"
       r="1"
       fx="0"
       fy="0"
       gradientTransform="matrix(-0.52268372,146.80127,-146.80127,-0.52268372,144.6632,-31.000484)"
       gradientUnits="userSpaceOnUse"
       spreadMethod="pad"><stop
         offset="0"
         style="stop-opacity:1;stop-color:#002a43"
         id="stop7-1-0" /><stop
         offset="1"
         style="stop-opacity:1;stop-color:#2c2d3d"
         id="stop8-8-6" /></radialGradient><linearGradient
       xlink:href="#linearGradient37"
       id="linearGradient38"
       x1="4.5253859"
       y1="30.604828"
       x2="19.912113"
       y2="48.942017"
       gradientUnits="userSpaceOnUse"
       gradientTransform="matrix(1.9843342,0,0,2.0127231,161.50392,232.10283)" /><linearGradient
       id="linearGradient37"
       inkscape:collect="always"><stop
         style="stop-color:#2082eb;stop-opacity:0.99607843;"
         offset="0"
         id="stop20" /><stop
         style="stop-color:#a884ff;stop-opacity:1;"
         offset="1"
         id="stop21" /></linearGradient></defs><metadata
     id="metadata7"><rdf:RDF><cc:Work
         rdf:about=""><dc:format>image/svg+xml</dc:format><dc:type
           rdf:resource="http://purl.org/dc/dcmitype/StillImage" /></cc:Work></rdf:RDF></metadata><rect
     style="fill:none;stroke-width:0.752768"
     id="rect289"
     width="340"
     height="200.00002"
     x="2.1664619e-07"
     y="2.2922136e-07"
     rx="1.1333333" /><text
     xml:space="preserve"
     style="font-weight:bold;font-size:30.6324px;font-family:'Ubuntu Mono';-inkscape-font-specification:'Ubuntu Mono Bold';fill:#ffffff;fill-opacity:1;stroke:none;stroke-width:6.87417;stroke-linecap:round;stroke-linejoin:round"
     x="110.65779"
     y="138.86038"
     id="text638"><tspan
       sodipodi:role="line"
       id="tspan636"
       style="font-style:normal;font-variant:normal;font-weight:600;font-stretch:normal;font-family:'Lexend Deca';-inkscape-font-specification:'Lexend Deca Semi-Bold';fill:#ffffff;fill-opacity:1;stroke:none;stroke-width:6.87417"
       x="110.65779"
       y="138.86038">BigCommunity</tspan></text><g
     id="g2"
     transform="matrix(2.2526316,0,0,2.2526316,-364.32632,-573.76328)"><path
       style="display:inline;fill:url(#linearGradient38);fill-opacity:0.968627;stroke-width:1.99181"
       d="m 168.71263,290.00007 c -0.60942,3.55062 -1.10658,9.63746 -2.15874,11.58102 A 23.75,20.598962 0 0 0 162,313.71246 a 23.75,20.598962 0 0 0 23.75,20.59896 23.75,20.598962 0 0 0 23.75,-20.59896 23.75,20.598962 0 0 0 -4.25159,-11.72647 h 0.004 c -0.0122,-0.0125 -0.0228,-0.0297 -0.0349,-0.0432 a 23.75,20.598962 0 0 0 -0.19775,-0.27125 c -1.08762,-1.83718 -1.59,-8.06353 -2.20926,-11.67144 -5.53984,4.63758 -4.88095,5.54061 -8.44892,4.51683 -0.3307,-0.0949 -0.69677,-0.20757 -1.10844,-0.33414 l -0.004,0.0275 a 23.75,20.598962 0 0 0 -7.49916,-1.09677 23.75,20.598962 0 0 0 -7.48001,1.08891 v -0.0197 c -0.4741,0.14577 -0.88732,0.27 -1.25571,0.37346 -3.40263,0.95561 -2.83968,0.0163 -8.30165,-4.55614 z"
       inkscape:label="head"
       id="path21" /><path
       style="display:inline;fill:#2c2734;fill-opacity:1;stroke-width:2.04362"
       d="m 177.4375,298.45656 a 13.283846,15.849123 0 0 0 -13.28417,15.84658 13.283846,15.849123 0 0 0 13.28417,15.85054 13.283846,15.849123 0 0 0 5.43083,-1.39962 c 1.0814,1.82641 2.38684,3.45189 2.88563,3.45161 0.48876,0 1.79458,-1.62496 2.8777,-3.45161 a 13.283846,15.849123 0 0 0 5.43084,1.39962 13.283846,15.849123 0 0 0 13.28417,-15.85054 13.283846,15.849123 0 0 0 -13.28417,-15.84659 13.283846,15.849123 0 0 0 -7.13292,2.49876 4.5397644,9.1470886 0 0 1 -1.17958,0.31235 4.5397644,9.1470886 0 0 1 -1.17958,-0.31235 13.283846,15.849123 0 0 0 -7.13292,-2.49875 z m 0.64521,2.99693 a 12.253082,13.486185 0 0 1 6.57875,2.12316 4.1875002,7.7833542 0 0 0 1.08854,0.26885 4.1875002,7.7833542 0 0 0 1.08854,-0.26885 12.253082,13.486185 0 0 1 6.57875,-2.12316 12.253082,13.486185 0 0 1 12.255,13.48225 12.253082,13.486185 0 0 1 -12.255,13.4862 12.253082,13.486185 0 0 1 -4.15625,-0.80656 c 0.5904,-1.15217 1.01389,-2.26932 1.01334,-3.00484 -9.1e-4,-2.15706 -2.02474,-2.98429 -4.52042,-2.98507 -2.49746,-0.001 -4.52347,0.82646 -4.52437,2.98507 -5.5e-4,0.73599 0.41648,1.85272 1.00541,3.00484 a 12.253082,13.486185 0 0 1 -4.15229,0.80656 12.253082,13.486185 0 0 1 -12.25104,-13.4862 12.253082,13.486185 0 0 1 12.25104,-13.48225 z"
       inkscape:label="c-eye"
       id="path22" /><path
       style="display:inline;fill:#d4d4d4;fill-opacity:1;stroke-width:1.97523"
       d="m 178.08073,301.45147 a 12.253082,13.486185 0 0 0 -12.25104,13.48263 12.253082,13.486185 0 0 0 12.25104,13.48667 12.253082,13.486185 0 0 0 4.15229,-0.80644 c -0.58893,-1.15212 -1.00596,-2.2669 -1.00542,-3.00289 9.1e-4,-2.15861 2.02691,-2.98809 4.52438,-2.98669 2.49568,7.8e-4 4.51951,0.82963 4.52041,2.98669 5.5e-4,0.73551 -0.42293,1.85072 -1.01333,3.00289 a 12.253082,13.486185 0 0 0 4.15625,0.80644 12.253082,13.486185 0 0 0 12.255,-13.48667 12.253082,13.486185 0 0 0 -12.255,-13.48263 12.253082,13.486185 0 0 0 -6.57875,2.12351 4.1875002,7.7833542 0 0 1 -1.08854,0.27151 4.1875002,7.7833542 0 0 1 -1.08854,-0.27151 12.253082,13.486185 0 0 0 -6.57875,-2.12351 z"
       inkscape:label="f-eye"
       id="path23" /><g
       transform="matrix(2.0266667,0,0,2.0266667,213.90563,252.53842)"
       inkscape:label="big"
       id="g26"><path
         d="m -16.306031,29.508339 c -1.003683,-0.773152 -1.720247,-0.180678 -1.842251,-0.08768 -0.122003,0.093 -2.704608,2.562591 -1.640393,-2.643871 0,0 -0.893222,0.742882 -1.213615,2.753668 -0.320392,2.010786 0.95898,2.305113 0.95898,2.305113 0,0 0.553373,0.219847 1.857891,-0.856239 1.304518,-1.076086 1.3769,-1.008243 1.3769,-1.008243 0,0 0.351891,-0.182615 0.312388,0.391735 -0.0395,0.57435 -0.149496,2.325354 -2.01365,3.021029 -1.864154,0.695676 -2.39933,-1.704168 -2.39933,-1.704168 0,0 -0.24466,3.46964 2.534704,3.383282 2.779363,-0.08636 3.091388,-3.268801 3.091388,-3.268801 0,0 0.192107,-1.399268 -1.023012,-2.285827"
         class="cls-3"
         style="display:inline;fill:#2c2734;fill-opacity:1;stroke-width:0.110689"
         inkscape:label="b"
         id="path24" /><ellipse
         cx="-16.368729"
         cy="26.905088"
         class="cls-3"
         rx="1.2430362"
         ry="0.93200046"
         style="display:inline;fill:#2c2734;fill-opacity:1;stroke-width:0.110689"
         transform="rotate(-4.397371)"
         inkscape:label="i"
         id="ellipse24" /><path
         d="m -13.124284,30.27262 a 0.95081873,0.95081873 0 0 0 -1.898466,-0.109781 0.94085556,0.94085556 0 0 0 0.01319,0.225162 c 0,0 0.254301,2.254731 3.195635,2.722989 1.48e-4,-0.0011 -1.538515,-1.445082 -1.310356,-2.83837"
         class="cls-3"
         style="display:inline;fill:#2c2734;fill-opacity:1;stroke-width:0.110689"
         inkscape:label="i"
         id="path25" /><path
         d="m -7.743437,29.71291 c 0,0 -0.553224,-0.220944 -1.857742,0.855142 -1.304518,1.076086 -1.3761,1.010584 -1.3761,1.010584 0,0 -0.352038,0.183713 -0.313484,-0.391882 0.03855,-0.575595 0.149853,-2.319721 2.013502,-3.019933 1.863649,-0.700211 2.400427,1.704316 2.400427,1.704316 0,0 0.244808,-3.470737 -2.534704,-3.383281 -2.779512,0.08746 -3.091388,3.2688 -3.091388,3.2688 0,0 -0.188965,1.400809 1.021914,2.28568 1.003684,0.773151 1.721345,0.180825 1.842103,0.08877 0.120758,-0.09205 2.706803,-2.562294 1.642144,2.647459 0,0 0.891977,-0.741934 1.213614,-2.753669 0.321638,-2.011735 -0.960286,-2.31199 -0.960286,-2.31199"
         class="cls-3"
         style="display:inline;fill:#2c2734;fill-opacity:1;stroke-width:0.110689"
         inkscape:label="g"
         id="path26" /></g></g></svg>
